<svg width="70" height="70" viewBox="0 0 70 70" fill="none" xmlns="http://www.w3.org/2000/svg">
<path d="M33.6299 43.1404L36.13 43.1403C38.6414 43.0589 50.4529 58.312 34.8827 58.2659C19.3656 58.2199 30.6299 43.1404 33.6299 43.1404Z" fill="black"/>
<path d="M14.378 49.5448C27.2428 65.2295 19.5962 40 34.5962 40C49.5962 40 39.0493 65.3566 53.4574 50.5193C67.8655 35.682 39.7473 39.7762 40.5811 36.0474C41.4148 32.3186 60.6311 44.3036 58.8106 29.496C56.9901 14.6883 41.5171 33.1032 39.4677 30.54C37.4184 27.9768 59.7597 18.117 45.7115 12.2028C31.6634 6.2887 39.0173 27.6726 34.4677 27.9767C29.9181 28.2807 37.7164 5.49409 24.0241 11.662C10.3318 17.8299 31.7742 26.7545 29.3461 30.2876C26.9181 33.8207 14.1973 12.5208 10.0794 28.2807C5.96145 44.0406 26.9181 31.3207 27.9597 35.7326C29.0013 40.1446 1.51313 33.86 14.378 49.5448Z" fill="black"/>
</svg>
