<svg width="74" height="79" viewBox="0 0 74 79" fill="none" xmlns="http://www.w3.org/2000/svg">
<path d="M21.7978 69.7734C40.2871 92.3154 29.2979 37.2729 37.8344 37.2731C46.371 37.2732 31.0904 95.0974 51.7976 73.7733C72.5048 52.4492 48.0993 43.1325 49.2976 37.7734C50.4958 32.4143 75.914 57.0549 73.2975 35.7734C70.6811 14.4919 51.5623 33.8206 48.617 30.1367C45.6717 26.4529 76.9875 9.77312 56.7976 1.27333C36.6077 -7.22645 43.8705 30.7732 37.8344 31.7732C31.7983 32.7732 39.476 -7.59136 19.7975 1.27313C0.119068 10.1376 29.7872 25.0591 26.2976 30.1369C22.808 35.2146 6.71576 10.6233 0.797532 33.2734C-5.1207 55.9235 23.8006 30.9322 25.2976 37.2731C26.7946 43.6139 3.30849 47.2313 21.7978 69.7734Z" fill="white"/>
</svg>
