<svg width="401" height="375" viewBox="0 0 401 375" fill="none" xmlns="http://www.w3.org/2000/svg">
<path d="M229.459 0.799225C227.459 2.29923 218.059 14.9992 216.059 18.9992C213.859 23.2992 202.159 41.2992 194.559 52.0992C180.959 71.3992 171.259 81.7992 164.159 84.4992C156.859 87.2992 151.359 84.2992 149.659 76.4992C148.659 72.1992 149.059 68.4992 151.259 59.9992C153.259 52.3992 154.159 43.4992 152.759 43.4992C149.859 43.4992 146.059 47.7992 137.259 60.9992C130.759 70.6992 124.959 77.8992 119.359 83.3992C112.059 90.4992 109.459 92.1992 99.1588 97.1992C92.5588 100.299 84.9588 104.199 82.2588 105.899C79.4588 107.599 74.5588 110.299 71.3588 111.999C66.3588 114.599 59.4588 119.799 47.0588 130.299C42.1588 134.499 33.7588 146.299 30.0588 154.199C26.3588 162.199 25.0588 163.199 18.0588 164.199C8.9588 165.399 2.1588 170.899 0.258798 178.599C-1.1412 184.299 3.3588 193.599 8.4588 195.599L10.9588 196.499L8.9588 199.799C7.8588 201.499 6.7588 204.999 6.4588 207.499C5.9588 211.399 6.3588 212.899 8.8588 217.299C12.9588 224.499 16.0588 225.899 25.8588 225.099C30.1588 224.799 33.8588 224.799 34.1588 225.299C35.5588 227.599 30.3588 241.399 25.0588 249.499C23.0588 252.499 19.9588 257.299 18.0588 260.099C13.2588 267.499 14.0588 271.899 20.0588 269.599C22.4588 268.699 41.7588 257.099 46.4588 253.699C53.0588 248.999 61.5588 248.499 63.7588 252.599C66.7588 258.099 64.1588 275.699 56.2588 304.499C50.8588 324.399 49.6588 329.599 49.0588 336.799C48.5588 342.599 48.7588 343.499 50.1588 343.499C53.0588 343.499 56.5588 340.499 60.3588 334.699C62.3588 331.499 64.8588 328.099 65.7588 326.999C66.7588 325.899 68.3588 323.399 69.3588 321.499C72.0588 316.499 83.1588 299.599 92.5588 286.199C98.0588 278.399 108.759 269.499 112.759 269.499C114.959 269.499 118.359 273.199 120.159 277.499C120.959 279.399 122.359 285.899 123.359 291.799C124.359 297.699 125.659 303.299 126.259 304.199C127.859 306.399 130.459 305.299 132.559 301.399C136.159 294.899 143.759 281.899 145.459 279.299C146.359 277.799 148.859 275.699 150.959 274.499C154.359 272.599 154.959 272.599 157.959 273.799C162.259 275.599 166.159 280.199 169.359 287.299C170.759 290.499 172.359 293.799 172.859 294.799C173.959 296.699 179.259 314.299 180.759 320.499C188.259 352.699 193.459 370.499 196.259 373.399C199.059 376.299 199.759 373.499 199.759 358.799C199.759 350.799 199.059 331.599 198.159 316.099C196.459 285.499 196.659 255.099 198.759 249.699C200.159 245.999 202.359 244.499 206.459 244.499C213.159 244.599 219.959 250.099 242.359 273.899C250.559 282.599 253.759 283.799 253.759 277.999C253.759 276.199 251.759 266.399 249.259 256.399C244.459 236.799 243.759 228.999 246.259 222.799C248.159 218.199 250.459 216.399 257.759 213.899C262.359 212.299 266.059 211.999 280.759 211.999C299.159 211.999 316.459 214.299 330.759 218.499C348.159 223.599 387.459 231.499 394.959 231.499H400.259L397.759 229.499C394.159 226.699 371.159 218.299 346.059 210.599C331.759 206.199 299.459 193.099 294.459 189.599C292.059 187.999 288.359 184.699 285.959 182.099C278.059 173.499 281.559 169.499 297.059 169.499C302.259 169.499 303.959 169.099 304.459 167.899C305.459 165.099 301.459 162.599 288.859 158.099C275.659 153.399 274.159 152.499 275.059 150.099C275.559 148.799 277.859 148.499 289.259 148.499C311.359 148.499 317.059 146.199 321.359 135.699C323.859 129.599 324.059 127.899 324.059 115.999C324.059 102.599 323.059 97.0992 316.559 76.4992C313.059 65.5992 303.459 53.1992 296.459 50.5992C292.459 49.0992 285.359 49.1992 281.359 50.8992C273.759 54.0992 261.859 63.6992 251.359 75.1992C245.459 81.6992 238.959 88.7992 236.859 90.9992C232.359 95.9992 224.659 99.8992 221.159 99.0992C212.559 96.8992 207.259 82.5992 209.759 68.3992C211.559 58.2992 219.359 34.5992 222.859 28.6992C225.359 24.2992 231.459 8.59923 232.259 4.09923C233.059 0.299225 231.859 -1.00077 229.459 0.799225ZM291.759 76.9992C297.559 79.9992 296.359 86.4992 288.859 92.3992C283.959 96.2992 268.259 103.799 265.959 103.299C262.959 102.699 263.459 99.4992 267.959 92.1992C273.259 83.2992 277.259 78.9992 281.759 77.0992C286.259 75.1992 288.159 75.0992 291.759 76.9992ZM301.559 113.699C303.459 115.299 302.959 120.899 300.759 123.299C299.659 124.499 297.459 125.799 295.959 126.199C292.259 127.199 276.959 127.199 273.559 126.199C263.059 123.299 284.459 110.399 296.759 112.199C298.659 112.399 300.859 113.099 301.559 113.699ZM189.859 141.799C191.959 143.199 194.459 146.499 196.459 150.499C202.659 162.999 203.659 164.199 210.059 167.099C219.659 171.399 222.759 169.799 236.059 154.199C238.159 151.699 241.059 149.399 242.459 148.999C246.159 148.099 250.259 150.099 252.259 153.899C253.959 156.999 253.959 157.599 252.259 165.899C251.359 170.699 250.859 175.799 251.259 177.299C252.159 181.099 257.959 187.899 264.359 192.699C272.859 199.099 271.359 203.699 261.659 201.599C238.559 196.699 230.759 200.999 230.759 218.599C230.759 225.699 230.459 227.199 228.559 229.199C225.559 232.399 223.159 232.099 212.659 226.999C207.559 224.499 202.059 222.499 200.359 222.499C196.859 222.499 189.859 225.499 188.059 227.599C186.259 229.799 184.059 238.999 182.759 250.099C180.159 272.499 173.759 276.799 167.159 260.499C163.259 250.799 160.159 247.499 154.959 247.499C151.559 247.499 150.559 248.099 147.659 251.499C137.759 263.299 135.959 264.999 134.059 263.899C133.059 263.399 130.659 259.799 128.759 255.999C125.959 250.399 124.659 248.899 122.259 248.299C116.959 246.899 113.459 249.099 100.059 262.399C86.9588 275.499 84.3588 277.499 80.9588 277.499C76.8588 277.499 76.3588 275.299 77.5588 262.699C79.2588 246.799 77.5588 241.599 70.6588 241.499C65.5588 241.499 61.9588 235.399 65.1588 232.199C66.6588 230.699 74.7588 228.499 78.7588 228.499C83.1588 228.499 96.9588 224.499 101.459 221.899C104.059 220.399 109.259 216.799 112.959 214.099C121.359 207.699 127.059 198.399 129.359 187.399C131.559 176.599 134.359 173.399 140.259 174.899C143.459 175.699 144.659 178.099 145.459 185.499C146.559 195.999 151.959 201.599 161.459 202.199C166.359 202.499 168.059 202.099 172.259 199.799C183.859 193.299 185.359 180.399 176.359 164.499C174.259 160.999 172.359 156.799 172.059 155.299C171.259 151.099 174.359 143.999 178.059 141.599C182.259 138.899 185.659 138.999 189.859 141.799ZM96.5588 145.699C102.259 147.899 109.259 154.799 113.059 161.899C114.859 165.299 115.259 167.599 115.259 175.999C115.159 184.999 114.859 186.599 112.359 191.699C108.059 200.299 98.8588 208.899 91.3588 211.499C71.8588 218.099 56.2588 212.699 47.1588 196.199C44.5588 191.499 44.2588 190.099 44.2588 181.499C44.2588 173.199 44.5588 171.299 46.9588 166.499C51.0588 158.299 59.6588 149.199 65.9588 146.499C75.2588 142.299 87.1588 141.999 96.5588 145.699Z" fill="black"/>
<path d="M204.659 176.999C201.359 178.799 199.459 183.599 200.759 186.899C202.959 192.799 210.959 194.399 215.259 189.799C218.259 186.499 218.659 180.599 216.059 178.199C213.359 175.899 207.759 175.299 204.659 176.999Z" fill="black"/>
<path d="M72.7588 160.599C65.8588 163.399 60.7588 171.599 60.7588 179.999C60.7588 187.599 62.7588 191.799 67.7588 194.999C75.8588 200.099 90.1588 197.399 95.5588 189.799C102.759 179.699 99.0588 163.299 89.0588 160.599C84.3588 159.299 76.0588 159.299 72.7588 160.599Z" fill="black"/>
<path d="M279.859 226.599C269.359 228.699 261.759 235.099 261.759 241.999C261.759 244.499 262.559 245.999 265.259 248.399C269.659 252.199 272.359 252.999 281.759 252.899C287.759 252.899 290.459 252.399 295.059 250.299C298.159 248.799 300.759 247.899 300.759 248.099C300.759 248.399 299.859 249.799 298.759 251.199C296.259 254.499 296.259 256.699 298.759 258.299C301.559 259.999 310.159 258.799 312.359 256.399C314.859 253.599 316.459 254.099 317.859 257.999C319.559 262.599 324.659 264.399 330.659 262.699C336.159 260.999 337.459 259.199 335.959 255.099C333.859 249.399 334.259 248.899 341.459 247.099C345.059 246.199 348.959 244.699 349.959 243.799C354.159 240.099 350.559 235.899 343.859 236.799C339.359 237.499 332.859 238.999 330.459 239.999C328.859 240.699 328.659 240.399 329.259 237.199C330.059 232.899 328.159 231.499 321.459 231.499C317.759 231.499 316.459 231.999 314.059 234.499C310.659 238.099 309.759 238.299 309.759 235.099C309.759 227.699 295.359 223.499 279.859 226.599ZM290.759 236.999C292.559 239.199 291.459 240.999 287.359 242.199C282.559 243.699 279.759 242.899 279.759 239.999C279.759 236.199 288.159 233.899 290.759 236.999Z" fill="black"/>
<path d="M361.859 242.099C358.559 244.499 352.959 250.699 352.159 252.799C351.259 255.499 353.559 257.499 357.359 257.499C359.859 257.499 361.859 256.399 365.759 252.999C368.559 250.499 371.259 248.499 371.859 248.499C372.359 248.499 373.359 247.399 373.959 245.999C374.959 243.899 374.759 243.199 373.159 241.999C370.559 240.099 364.759 240.099 361.859 242.099Z" fill="black"/>
<path d="M342.659 261.399C340.359 263.299 340.259 263.299 342.159 265.399C344.859 268.299 349.759 268.199 352.759 264.999C354.659 262.999 354.859 262.299 353.759 260.999C351.959 258.899 345.459 259.099 342.659 261.399Z" fill="black"/>
</svg>
