<svg width="63" height="69" viewBox="0 0 63 69" fill="none" xmlns="http://www.w3.org/2000/svg">
<path d="M19 23.5L25.25 12.6747H37.75L44 23.5L37.75 34.3253H25.25L19 23.5Z" fill="#CB9B64"/>
<path d="M0 34.5L6.25 23.6747H18.75L25 34.5L18.75 45.3253H6.25L0 34.5Z" fill="#F6F5C2"/>
<path d="M19 45.5L25.25 34.6747H37.75L44 45.5L37.75 56.3253H25.25L19 45.5Z" fill="#F6F5C2"/>
<path d="M19 45.5L25.25 34.6747H37.75L44 45.5L37.75 56.3253H25.25L19 45.5Z" fill="#F6F5C2"/>
<path d="M38 34.5L44.25 23.6747H56.75L63 34.5L56.75 45.3253H44.25L38 34.5Z" fill="#F6F5C2"/>
<path d="M38 12.5L44.25 1.67468H56.75L63 12.5L56.75 23.3253H44.25L38 12.5Z" fill="#F6F5C2"/>
<path d="M38 56.5L44.25 45.6747H56.75L63 56.5L56.75 67.3253H44.25L38 56.5Z" fill="#0F0F0F"/>
</svg>
